<?xml version="1.0" encoding="UTF-8" standalone="no"?>
<!-- Created with Inkscape (http://www.inkscape.org/) -->

<svg
   xmlns:dc="http://purl.org/dc/elements/1.1/"
   xmlns:cc="http://creativecommons.org/ns#"
   xmlns:rdf="http://www.w3.org/1999/02/22-rdf-syntax-ns#"
   xmlns:svg="http://www.w3.org/2000/svg"
   xmlns="http://www.w3.org/2000/svg"
   xmlns:sodipodi="http://sodipodi.sourceforge.net/DTD/sodipodi-0.dtd"
   xmlns:inkscape="http://www.inkscape.org/namespaces/inkscape"
   width="117.24731mm"
   height="50.873241mm"
   viewBox="0 0 415.44321 180.25951"
   id="svg2"
   version="1.1"
   inkscape:version="0.91 r13725"
   sodipodi:docname="title.svg">
  <defs
     id="defs4" />
  <sodipodi:namedview
     id="base"
     pagecolor="#ffffff"
     bordercolor="#666666"
     borderopacity="1.0"
     inkscape:pageopacity="0.0"
     inkscape:pageshadow="2"
     inkscape:zoom="0.98994949"
     inkscape:cx="350.96999"
     inkscape:cy="-129.71063"
     inkscape:document-units="px"
     inkscape:current-layer="layer1"
     showgrid="false"
     fit-margin-top="0"
     fit-margin-left="0"
     fit-margin-right="0"
     fit-margin-bottom="0" />
  <metadata
     id="metadata7">
    <rdf:RDF>
      <cc:Work
         rdf:about="">
        <dc:format>image/svg+xml</dc:format>
        <dc:type
           rdf:resource="http://purl.org/dc/dcmitype/StillImage" />
        <dc:title></dc:title>
      </cc:Work>
    </rdf:RDF>
  </metadata>
  <g
     inkscape:label="Calque 1"
     inkscape:groupmode="layer"
     id="layer1"
     transform="translate(-20.388393,12.326164)">
    <g
       style="font-style:normal;font-variant:normal;font-weight:normal;font-stretch:normal;font-size:15px;line-height:100%;font-family:'Fira Sans';-inkscape-font-specification:'Fira Sans, Normal';text-align:start;letter-spacing:0px;word-spacing:0px;writing-mode:lr-tb;text-anchor:start;fill:#ffffff;fill-opacity:1;stroke:none;stroke-width:1px;stroke-linecap:butt;stroke-linejoin:miter;stroke-opacity:1"
       id="text4144"
       transform="matrix(0.74066568,0,0,0.74066568,5.28741,-3.1965987)">
      <path
         d="m 370.25,40.173828 c 0,-11.25 -5.625,-20.25 -16.875,-27 -8.625,-5.2499999 -19.5,-8.6249999 -31.875,-10.1249999 -15,-1.875 -31.5,-1.875 -49.125,0 l -49.125,6 c -34.875,4.1249999 -64.125,6.3749999 -88.125,6.3749999 -49.125,0 -84.375,-9.3749999 -105,-27.75 17.25,28.875 48,43.5 92.25,43.5 18.375,0 44.625,-3.375 80.25,-9.75 35.25,-6.375 61.5,-9.75 79.125,-10.125 18.375,-0.375 33.75,2.25 46.875,7.125 18.375,6.75 27.375,18 27.375,33.75 0,15.375 -9.75,31.5 -29.625,49.125002 -18.375,16.125 -35.625,25.5 -51.75,28.125 -8.625,1.125 -16.5,0.75 -24,-1.125 12.75,-0.375 25.125,-4.875 37.5,-12.75 -7.5,4.125 -15.375,6.75 -23.625,7.875 -12,1.875 -22.875,0.375 -33,-4.5 -1.125,-1.125 -2.625,-1.5 -3.75,-2.625 7.125,-8.625 15,-18.000002 24.375,-28.125002 l 28.125,-31.125 c 8.625,-9.375 16.875,-15.375 24.75,-18.75 7.125,-3.375 17.25,-5.625 30,-6.75 -4.5,-2.625 -9,-3.75 -13.875,-4.125 -27.375,-2.25 -63,22.5 -106.125,73.875002 -3.375,-6.375002 -4.875,-13.125002 -4.875,-21.000002 0,-11.25 3,-21 9.375,-29.625 7.125,-10.125 16.125,-15 26.25,-15.375 9.375,-0.375 18,2.625 26.25,9 -6.375,-8.625 -15.375,-13.125 -27.375,-13.5 -21.375,-0.375 -36,11.25 -43.875,34.875 1.875,-12 7.125,-21.75 16.5,-28.875 -15.375,6.375 -25.125,24.375 -25.125,42.375 0,13.125 4.875,24.000002 14.25,33.000002 l -11.625,15.375 -9.75,13.125 c 1.125,-3.375 1.5,-7.125 1.5,-11.625 0.375,-5.625 -0.75,-10.5 -2.625,-14.625 -0.75,11.625 -3,21.75 -7.125,30 -2.625,5.625 -8.25,14.625 -16.875,26.25 -28.125,29.625 -55.5,44.625 -81.375,44.625 -4.125,0 -9.375,-0.75 -15.75,-1.875 -13.125,-2.625 -23.25,-10.125 -30.375,-22.875 -7.125,-11.25 -9.75,-24 -8.625,-37.875 3,-31.5 20.625,-58.875002 52.875,-82.500002 21.375,-16.125 40.125,-24 56.25,-24 7.5,0 13.875,1.875 18.75,5.25 l 1.5,-1.125 c -6.375,-5.25 -14.625,-7.875 -24.375,-7.875 -17.625,0 -36.375,7.125 -56.25,21.75 -22.875,16.875 -38.625,37.875002 -47.25,63.000002 -4.125,11.625 -5.625,23.25 -4.5,34.875 1.875,20.625 10.875,36.75 27.75,47.625 -0.375,-0.375 -0.75,-0.375 -1.125,-0.375 12.375,6.375 24.75,9.375 37.5,9.375 14.25,0 28.875,-3.75 44.25,-10.875 -16.125,13.875 -30.375,20.25 -43.5,18.75 7.5,2.625 15,4.125 22.125,4.5 0,-0.375 0,-0.375 -0.375,-0.375 19.5,1.875 42,-12.75 67.125,-43.875 11.625,-13.875 22.5,-28.5 34.125,-44.625 l 12.75,-17.25 c 9.75,6 21.375,9 34.5,9.375 6.75,0.375 13.875,-0.375 21.75,-2.25 22.875,-5.25 43.5,-17.25 61.125,-35.625002 21,-22.125 31.5,-40.875 31.5,-56.25 z"
         style="font-style:normal;font-variant:normal;font-weight:normal;font-stretch:normal;font-size:375px;font-family:'BILLY ARGEL FONT';-inkscape-font-specification:'BILLY ARGEL FONT';fill:#ffffff;fill-opacity:1"
         id="path4151"
         inkscape:connector-curvature="0" />
      <path
         d="m 281.52148,122.29883 c 1.875,-3.375 1.5,-6 -1.5,-7.125 l -10.5,-4.5 c 0.375,0.375 0,1.875 -0.375,4.875 -1.875,8.625 -10.125,15 -18.75,15 -1.5,0 -3,-0.375 -4.875,-0.75 4.125,3.75 8.625,5.625 13.875,5.625 10.5,0 18,-4.5 22.125,-13.125 z m -11.25,62.25 c -5.25,3.75 -8.25,6.375 -9.375,7.875 -11.625,14.25 -21,21.375 -28.125,21.375 -4.5,0 -6.75,-2.25 -6.75,-6.75 0,-5.25 4.125,-13.125 12,-24 l 14.25,-16.5 c 9.375,-10.875 14.25,-18.75 14.25,-23.25 0,-2.625 -1.875,-4.125 -6,-4.125 -2.625,0 -5.625,0.375 -8.625,1.5 -0.375,3.375 -1.875,7.125 -4.125,10.5 l -7.125,9 -0.75,0.75 c -12.375,9.375 -20.625,14.25 -24.375,14.25 1.5,0.375 2.625,0.75 3.75,0.75 3.375,0.375 6.375,0 9.375,-1.125 l 1.125,-0.75 c -9,12 -13.5,21.75 -13.5,28.875 0,7.875 3.75,12.375 11.625,13.5 7.125,1.125 15.375,-2.25 24.75,-9.75 10.125,-7.875 15.75,-15.375 17.625,-22.125 z"
         style="font-style:normal;font-variant:normal;font-weight:normal;font-stretch:normal;font-size:375px;font-family:'BILLY ARGEL FONT';-inkscape-font-specification:'BILLY ARGEL FONT';fill:#ffffff;fill-opacity:1"
         id="path4153"
         inkscape:connector-curvature="0"
         sodipodi:nodetypes="ccccscscccssccssccccccccsccc" />
      <path
         d="m 317.82031,167.29883 c -1.125,-9 -6.75,-15.75 -16.875,-19.875 5.625,-8.625 8.25,-13.875 8.25,-16.5 0,-1.125 -0.75,-1.875 -2.25,-1.875 -0.75,0 -1.125,0 -1.5,0.375 -10.125,9 -15.375,14.625 -15.375,16.875 0,0.375 3.375,1.875 2.25,3 -3.375,7.125 -11.625,16.875 -24.375,29.625 -13.875,13.5 -23.625,20.25 -30,20.625 l 3.75,1.125 c 3.375,0.375 7.125,-0.375 11.25,-2.625 13.875,-7.125 28.875,-22.5 45,-46.875 5.25,4.125 7.5,9 6.75,14.625 -0.75,2.625 -3.375,6.75 -7.5,12.375 l -9.375,10.5 c -11.625,12.375 -17.625,21.75 -18,27.375 0,3 3,4.5 9.375,4.875 1.875,0 4.5,-1.125 7.875,-3.75 -2.625,0 -3.75,0 -3,0.375 -0.375,0 -0.375,0 -0.75,-0.375 -0.375,-0.375 -0.75,-1.125 -0.375,-2.25 13.125,-16.5 23.25,-28.5 30.375,-36.375 3.375,-4.5 4.875,-8.25 4.5,-11.25 z"
         style="font-style:normal;font-variant:normal;font-weight:normal;font-stretch:normal;font-size:375px;font-family:'BILLY ARGEL FONT';-inkscape-font-specification:'BILLY ARGEL FONT';fill:#ffffff;fill-opacity:1"
         id="path4155"
         inkscape:connector-curvature="0" />
      <path
         d="m 414.86328,184.17383 c -4.875,4.125 -8.25,6.75 -9.375,8.25 -9.375,11.625 -16.125,18 -20.625,19.5 -2.25,1.125 -4.875,1.5 -7.5,1.5 -4.125,0 -6,-2.25 -6,-7.125 0,-9 7.125,-21.75 21.75,-38.625 7.125,-8.625 10.875,-15 10.875,-18.375 0,-4.125 -2.25,-7.875 -6.375,-10.5 0.375,4.125 -1.875,8.625 -6.75,13.875 l -4.5,4.875 c 0.75,-1.875 1.125,-3.75 1.125,-5.625 0,-6.375 -4.125,-10.125 -12.375,-10.875 -11.25,-1.125 -22.875,4.875 -34.875,18 -14.625,16.125 -22.5,31.125 -22.875,45 0,10.125 6.375,13.875 16.5,11.25 8.625,-1.875 18,-7.875 27.375,-18 l 0,1.5 c -0.375,0.75 -0.375,1.875 -0.375,3.75 0.75,7.875 4.5,12.375 11.625,13.5 7.125,1.125 15.375,-2.25 25.125,-9.75 9.375,-7.125 15.375,-14.625 17.25,-22.125 z m -33,-27.75 c -1.125,4.125 -3,8.25 -5.625,12.75 0.375,-3 0.375,-5.25 0.375,-6.75 -0.375,-3.375 -1.125,-6.375 -2.25,-9 l -0.375,-0.375 c 0,10.875 -3.375,22.125 -10.125,33.75 -1.125,2.625 -2.625,4.5 -5.25,7.125 -10.125,11.25 -18,16.875 -23.25,16.875 -3.375,0 -5.25,-1.5 -5.625,-4.125 -1.125,-6.75 2.625,-16.125 10.5,-28.125 14.625,-21.375 27,-32.25 37.125,-32.25 5.25,0 6.75,3.375 4.5,10.125 z"
         style="font-style:normal;font-variant:normal;font-weight:normal;font-stretch:normal;font-size:375px;font-family:'BILLY ARGEL FONT';-inkscape-font-specification:'BILLY ARGEL FONT';fill:#ffffff;fill-opacity:1"
         id="path4157"
         inkscape:connector-curvature="0" />
      <path
         d="m 507.98633,123.42383 c -4.875,-0.375 -7.875,-0.375 -10.5,-0.375 -7.125,-0.375 -16.875,-1.125 -29.25,-2.625 l 8.625,-11.25 c 2.625,-3.375 4.125,-7.5 4.125,-11.625002 0,-4.125 -1.875,-7.875 -5.25,-10.5 -4.125,8.625 -11.25,19.125002 -21.375,31.125002 l -5.25,-0.75 c -42,-6 -63.375,-9 -64.125,-9 -11.25,0 -22.875,1.5 -35.25,4.125 -14.625,3.375 -24.75,8.625 -30.75,15.75 l 1.125,-0.75 c 13.875,-6.375 31.5,-10.125 53.25,-10.875 11.625,-0.375 24,0 38.625,1.875 l 38.25,4.5 -25.5,30.375 c -15.375,17.625 -23.625,27.375 -24.75,30 -5.625,8.625 -7.875,16.125 -7.5,21.75 0.75,7.875 4.5,12.375 11.625,13.5 7.125,1.125 15.75,-1.875 25.125,-9.75 9.75,-7.875 15.375,-15 17.25,-22.125 -4.5,3.375 -7.5,6 -9.375,7.875 -11.625,14.25 -21,21.375 -28.125,21.375 -4.125,0 -6.375,-2.25 -6.375,-7.125 0,-6.375 3,-13.875 9,-21.75 1.125,-1.875 5.25,-6.75 11.625,-14.625 l 30.375,-36.375 c 5.625,-6.375 9,-10.5 11.625,-12 13.875,1.125 23.625,1.5 30,1.125 7.125,-0.375 11.625,-1.125 12.75,-1.875 z"
         style="font-style:normal;font-variant:normal;font-weight:normal;font-stretch:normal;font-size:375px;font-family:'BILLY ARGEL FONT';-inkscape-font-specification:'BILLY ARGEL FONT';fill:#ffffff;fill-opacity:1"
         id="path4159"
         inkscape:connector-curvature="0" />
      <path
         d="m 499.92383,156.04883 c 0,-4.5 -2.625,-8.25 -8.25,-11.625 -2.25,-1.875 -5.25,-3 -9,-3.375 -11.25,-1.125 -22.875,4.875 -34.875,18 -14.625,16.125 -22.5,31.125 -22.875,45 0,8.625 4.5,13.5 13.875,14.25 0.375,0 0.75,0 0.75,-0.375 0.375,0.375 0.75,0.375 1.5,0.375 7.875,1.125 18.375,-2.25 31.125,-9.375 12.375,-7.5 19.875,-15 22.5,-22.875 l -11.625,8.25 c -11.625,10.875 -23.625,17.625 -36,20.25 -4.125,0 -6.75,-1.125 -8.25,-3 -1.875,-3.375 -1.5,-10.125 1.875,-20.25 1.875,-4.5 4.125,-8.625 6.75,-12 -0.375,0 -0.375,0 -0.375,0.375 -0.375,4.125 0,7.875 1.875,11.25 -0.375,-4.5 2.25,-12.75 8.625,-24.75 l 1.125,-1.5 c 3.375,-3.75 6.75,-7.125 9.75,-9.75 7.125,-6.375 13.125,-9.375 17.625,-8.625 l 0.375,0.375 c 1.875,1.875 2.25,4.125 1.125,6.75 -3.75,10.125 -10.5,18 -19.875,23.25 -4.125,2.25 -7.875,1.125 -10.5,-3 2.625,7.125 6.75,10.875 12.375,10.875 0.375,0 2.25,-0.75 5.25,-1.875 16.875,-9.375 25.125,-18 25.125,-26.625 z"
         style="font-style:normal;font-variant:normal;font-weight:normal;font-stretch:normal;font-size:375px;font-family:'BILLY ARGEL FONT';-inkscape-font-specification:'BILLY ARGEL FONT';fill:#ffffff;fill-opacity:1"
         id="path4161"
         inkscape:connector-curvature="0" />
      <path
         d="m 581.23437,146.67383 c 0,0 -0.375,-0.75 -0.75,-2.25 l -0.375,-0.375 c 0.375,-1.875 -2.25,-4.125 -7.875,-6 -4.125,-1.125 -7.875,-1.875 -10.5,-1.875 -5.625,0.375 -10.125,1.875 -14.25,4.125 -7.875,5.25 -12,15 -12,29.625 -0.75,29.25 -9.375,43.875 -25.875,44.25 -7.125,0 -13.125,-5.25 -13.125,-12.375 -0.75,-6 3,-12.375 10.875,-18.75 5.625,-4.5 10.125,-6.75 14.25,-6.75 1.125,0 2.25,0 3,0.375 l -6.75,-1.125 c -6.375,0.75 -11.25,2.625 -15.375,5.25 -10.875,7.125 -15.75,15 -14.625,24 1.5,9 7.875,13.5 19.5,13.5 21,-0.375 39.75,-13.125 42.75,-33 -0.375,-13.875 -1.875,-26.25 3,-35.625 3,-5.625 7.125,-8.625 12.75,-9 1.875,0 4.125,0.375 6.375,1.125 0.375,0.375 0.375,0.75 0.375,1.875 1.125,7.125 -3.375,14.625 -12.75,22.5 l 2.25,-0.75 c 13.5,-4.875 19.875,-11.25 19.125,-18.75 z"
         style="font-style:normal;font-variant:normal;font-weight:normal;font-stretch:normal;font-size:375px;font-family:'BILLY ARGEL FONT';-inkscape-font-specification:'BILLY ARGEL FONT';fill:#ffffff;fill-opacity:1"
         id="path4163"
         inkscape:connector-curvature="0" />
    </g>
  </g>
</svg>
